<mxfile host="Electron" agent="Mozilla/5.0 (Macintosh; Intel Mac OS X 10_15_7) AppleWebKit/537.36 (KHTML, like Gecko) draw.io/28.0.6 Chrome/138.0.7204.100 Electron/37.2.3 Safari/537.36" version="28.0.6">
  <diagram name="PÃ¡gina-1" id="2xTgtM1YZes1ukIObEJ2">
    <mxGraphModel dx="1426" dy="859" grid="1" gridSize="10" guides="1" tooltips="1" connect="1" arrows="1" fold="1" page="1" pageScale="1" pageWidth="827" pageHeight="1169" math="0" shadow="0">
      <root>
        <mxCell id="0" />
        <mxCell id="1" parent="0" />
        <mxCell id="9GSZ0x1rHftiterE00Qm-1" value="AWS Cloud" style="points=[[0,0],[0.25,0],[0.5,0],[0.75,0],[1,0],[1,0.25],[1,0.5],[1,0.75],[1,1],[0.75,1],[0.5,1],[0.25,1],[0,1],[0,0.75],[0,0.5],[0,0.25]];outlineConnect=0;gradientColor=none;html=1;whiteSpace=wrap;fontSize=12;fontStyle=0;container=1;pointerEvents=0;collapsible=0;recursiveResize=0;shape=mxgraph.aws4.group;grIcon=mxgraph.aws4.group_aws_cloud_alt;strokeColor=#232F3E;fillColor=none;verticalAlign=top;align=left;spacingLeft=30;fontColor=#232F3E;dashed=0;" vertex="1" parent="1">
          <mxGeometry x="130" y="120" width="680" height="465" as="geometry" />
        </mxCell>
        <mxCell id="9GSZ0x1rHftiterE00Qm-3" value="VPC" style="points=[[0,0],[0.25,0],[0.5,0],[0.75,0],[1,0],[1,0.25],[1,0.5],[1,0.75],[1,1],[0.75,1],[0.5,1],[0.25,1],[0,1],[0,0.75],[0,0.5],[0,0.25]];outlineConnect=0;gradientColor=none;html=1;whiteSpace=wrap;fontSize=12;fontStyle=0;container=1;pointerEvents=0;collapsible=0;recursiveResize=0;shape=mxgraph.aws4.group;grIcon=mxgraph.aws4.group_vpc2;strokeColor=#8C4FFF;fillColor=none;verticalAlign=top;align=left;spacingLeft=30;fontColor=#AAB7B8;dashed=0;" vertex="1" parent="9GSZ0x1rHftiterE00Qm-1">
          <mxGeometry x="34" y="30" width="620" height="410" as="geometry" />
        </mxCell>
        <mxCell id="9GSZ0x1rHftiterE00Qm-11" value="Public Network" style="shape=mxgraph.ibm.box;prType=public;fontStyle=0;verticalAlign=top;align=left;spacingLeft=32;spacingTop=4;fillColor=none;rounded=0;whiteSpace=wrap;html=1;strokeColor=#4376BB;strokeWidth=3;dashed=0;container=1;spacing=-4;collapsible=0;expand=0;recursiveResize=0;" vertex="1" parent="9GSZ0x1rHftiterE00Qm-3">
          <mxGeometry x="40" y="30" width="550" height="350" as="geometry" />
        </mxCell>
        <mxCell id="9GSZ0x1rHftiterE00Qm-2" value="Security group" style="fillColor=none;strokeColor=#DD3522;verticalAlign=top;fontStyle=0;fontColor=#DD3522;whiteSpace=wrap;html=1;" vertex="1" parent="9GSZ0x1rHftiterE00Qm-11">
          <mxGeometry x="40" y="30" width="490" height="290" as="geometry" />
        </mxCell>
        <mxCell id="9GSZ0x1rHftiterE00Qm-4" value="ECS" style="sketch=0;points=[[0,0,0],[0.25,0,0],[0.5,0,0],[0.75,0,0],[1,0,0],[0,1,0],[0.25,1,0],[0.5,1,0],[0.75,1,0],[1,1,0],[0,0.25,0],[0,0.5,0],[0,0.75,0],[1,0.25,0],[1,0.5,0],[1,0.75,0]];outlineConnect=0;fontColor=#232F3E;fillColor=#ED7100;strokeColor=#ffffff;dashed=0;verticalLabelPosition=bottom;verticalAlign=top;align=center;html=1;fontSize=12;fontStyle=0;aspect=fixed;shape=mxgraph.aws4.resourceIcon;resIcon=mxgraph.aws4.ecs;" vertex="1" parent="9GSZ0x1rHftiterE00Qm-11">
          <mxGeometry x="96" y="140.01" width="78" height="78" as="geometry" />
        </mxCell>
        <mxCell id="9GSZ0x1rHftiterE00Qm-6" value="Fargate" style="sketch=0;points=[[0,0,0],[0.25,0,0],[0.5,0,0],[0.75,0,0],[1,0,0],[0,1,0],[0.25,1,0],[0.5,1,0],[0.75,1,0],[1,1,0],[0,0.25,0],[0,0.5,0],[0,0.75,0],[1,0.25,0],[1,0.5,0],[1,0.75,0]];outlineConnect=0;fontColor=#232F3E;fillColor=#ED7100;strokeColor=#ffffff;dashed=0;verticalLabelPosition=bottom;verticalAlign=top;align=center;html=1;fontSize=12;fontStyle=0;aspect=fixed;shape=mxgraph.aws4.resourceIcon;resIcon=mxgraph.aws4.fargate;" vertex="1" parent="9GSZ0x1rHftiterE00Qm-11">
          <mxGeometry x="246" y="140.01" width="78" height="78" as="geometry" />
        </mxCell>
        <mxCell id="9GSZ0x1rHftiterE00Qm-7" style="edgeStyle=orthogonalEdgeStyle;rounded=0;orthogonalLoop=1;jettySize=auto;html=1;" edge="1" parent="9GSZ0x1rHftiterE00Qm-11" source="9GSZ0x1rHftiterE00Qm-4" target="9GSZ0x1rHftiterE00Qm-6">
          <mxGeometry relative="1" as="geometry" />
        </mxCell>
        <mxCell id="9GSZ0x1rHftiterE00Qm-8" value="Container" style="outlineConnect=0;dashed=0;verticalLabelPosition=bottom;verticalAlign=top;align=center;html=1;shape=mxgraph.aws3.ec2_compute_container;fillColor=#F58534;gradientColor=none;" vertex="1" parent="9GSZ0x1rHftiterE00Qm-11">
          <mxGeometry x="406" y="157.88" width="80" height="42.25" as="geometry" />
        </mxCell>
        <mxCell id="9GSZ0x1rHftiterE00Qm-9" style="edgeStyle=orthogonalEdgeStyle;rounded=0;orthogonalLoop=1;jettySize=auto;html=1;" edge="1" parent="9GSZ0x1rHftiterE00Qm-11" source="9GSZ0x1rHftiterE00Qm-6" target="9GSZ0x1rHftiterE00Qm-8">
          <mxGeometry relative="1" as="geometry" />
        </mxCell>
        <mxCell id="9GSZ0x1rHftiterE00Qm-15" style="edgeStyle=orthogonalEdgeStyle;rounded=0;orthogonalLoop=1;jettySize=auto;html=1;" edge="1" parent="9GSZ0x1rHftiterE00Qm-11" source="9GSZ0x1rHftiterE00Qm-14" target="9GSZ0x1rHftiterE00Qm-4">
          <mxGeometry relative="1" as="geometry" />
        </mxCell>
        <mxCell id="9GSZ0x1rHftiterE00Qm-14" value="Internet&lt;div&gt;Gateway&lt;/div&gt;" style="outlineConnect=0;dashed=0;verticalLabelPosition=bottom;verticalAlign=top;align=center;html=1;shape=mxgraph.aws3.internet_gateway;fillColor=#F58534;gradientColor=none;" vertex="1" parent="9GSZ0x1rHftiterE00Qm-11">
          <mxGeometry x="-14" y="190" width="35" height="35.01" as="geometry" />
        </mxCell>
        <mxCell id="9GSZ0x1rHftiterE00Qm-10" style="edgeStyle=orthogonalEdgeStyle;rounded=0;orthogonalLoop=1;jettySize=auto;html=1;entryX=0;entryY=0.5;entryDx=0;entryDy=0;entryPerimeter=0;" edge="1" parent="1" source="9GSZ0x1rHftiterE00Qm-5" target="9GSZ0x1rHftiterE00Qm-14">
          <mxGeometry relative="1" as="geometry" />
        </mxCell>
        <mxCell id="9GSZ0x1rHftiterE00Qm-12" value="http" style="edgeLabel;html=1;align=center;verticalAlign=middle;resizable=0;points=[];fontSize=15;fontStyle=1" vertex="1" connectable="0" parent="9GSZ0x1rHftiterE00Qm-10">
          <mxGeometry x="-0.4104" y="2" relative="1" as="geometry">
            <mxPoint x="22" y="-17" as="offset" />
          </mxGeometry>
        </mxCell>
        <mxCell id="9GSZ0x1rHftiterE00Qm-5" value="user" style="sketch=0;outlineConnect=0;fontColor=#232F3E;gradientColor=none;fillColor=#232F3D;strokeColor=none;dashed=0;verticalLabelPosition=bottom;verticalAlign=top;align=center;html=1;fontSize=12;fontStyle=0;aspect=fixed;pointerEvents=1;shape=mxgraph.aws4.user;" vertex="1" parent="1">
          <mxGeometry x="10" y="320.01" width="78" height="78" as="geometry" />
        </mxCell>
      </root>
    </mxGraphModel>
  </diagram>
</mxfile>
